# xmcd CD database file
#
# Track frame offsets:
#	183
#	25333
#	47473
#	60980
#	81598
#	105533
#	132520
#	151140
#	177758
#	201223
#	223453
#	239953
#	268918
#	286650
#
# Disc length: 4134 seconds
#
# Revision: 1
# Processed by: cddbd v1.5PL3 Copyright (c) Steve Scherf et al.
# Submitted via: jetAudio 5
#
DISCID=d110240e
DTITLE=Lucky Lopez Evans - Evil
DYEAR=1900
DGENRE=
TTITLE0=chinaman's door
TTITLE1=walk out like a lady
TTITLE2=welcome to the club
TTITLE3=evil
TTITLE4=chicken heads
TTITLE5=rainbow's end
TTITLE6=little baby
TTITLE7=blues plague
TTITLE8=hail to the king
TTITLE9=if you leave me (i'll go crazy)
TTITLE10=break your neck
TTITLE11=you're gonna need another favour
TTITLE12=kansas city
TTITLE13=how blue can you get
EXTD=1990
EXTT0=
EXTT1=
EXTT2=
EXTT3=
EXTT4=
EXTT5=
EXTT6=
EXTT7=
EXTT8=
EXTT9=
EXTT10=
EXTT11=
EXTT12=
EXTT13=
PLAYORDER=
